<?xml version="1.0" encoding="UTF-8" standalone="no"?><!DOCTYPE svg PUBLIC "-//W3C//DTD SVG 1.1//EN" "http://www.w3.org/Graphics/SVG/1.1/DTD/svg11.dtd"><svg width="100%" height="100%" viewBox="0 0 490 847" version="1.1" xmlns="http://www.w3.org/2000/svg" xmlns:xlink="http://www.w3.org/1999/xlink" xml:space="preserve" xmlns:serif="http://www.serif.com/" style="fill-rule:evenodd;clip-rule:evenodd;stroke-linejoin:round;stroke-miterlimit:2;"><path d="M394.278,634.967l0,127.995c0,1.851 -1.502,3.353 -3.353,3.353l-284.956,0c-1.85,0 -3.353,-1.502 -3.353,-3.353l0,-127.995c0,-1.851 1.503,-3.353 3.353,-3.353l284.956,-0c1.851,-0 3.353,1.502 3.353,3.353Z" style="fill:#fff;fill-opacity:0;"/><path d="M408.296,634.967l0,127.995c0,9.587 -7.783,17.371 -17.371,17.371l-284.956,0c-9.587,0 -17.371,-7.784 -17.371,-17.371l0,-127.995c0,-9.588 7.784,-17.371 17.371,-17.371l284.956,-0c9.588,-0 17.371,7.783 17.371,17.371Zm-14.018,-0c0,-1.851 -1.502,-3.353 -3.353,-3.353l-284.956,-0c-1.85,-0 -3.353,1.502 -3.353,3.353l0,127.995c0,1.851 1.503,3.353 3.353,3.353l284.956,0c1.851,0 3.353,-1.502 3.353,-3.353l0,-127.995Z" style="fill:#0100ff;"/><path d="M62.776,58.644l371.821,-0.021l-186.745,545.944l-185.076,-545.923Z" style="fill:#0100ff;"/><path d="M62.776,57.894l371.821,-0.021c0.242,-0 0.469,0.117 0.61,0.314c0.141,0.197 0.178,0.449 0.1,0.678l-186.745,545.945c-0.104,0.303 -0.39,0.507 -0.711,0.507c-0.321,-0 -0.606,-0.205 -0.709,-0.509l-185.076,-545.923c-0.078,-0.229 -0.04,-0.481 0.101,-0.678c0.14,-0.196 0.367,-0.313 0.609,-0.313Zm0,0.75l185.076,545.923l186.745,-545.944l-371.821,0.021Z" style="fill:#0100ff;"/><path d="M238.997,104.068l55.114,0l-75.272,174.198l101.489,-54.648l-55.347,211.25l19.575,-11.493l-39.681,59.033l-11.937,-69.212l15.38,19.808l21.091,-160.448l-94.032,46.841l63.62,-215.329Z" style="fill:#f00;"/><path d="M304.14,97.477l-71.727,165.993l98.132,-52.84l-55.145,210.477l30.764,-18.063l-64.99,96.687l-19.218,-111.427l21.885,28.186c-0,-0 17.418,-132.51 17.418,-132.51l-96.493,48.067l69.305,-234.57l70.069,-0Zm-65.143,6.591l-63.62,215.329l94.032,-46.841l-21.091,160.448l-15.38,-19.808l11.937,69.212l39.681,-59.033l-19.575,11.493l55.347,-211.25l-101.489,54.648l75.272,-174.198l-55.114,0Z" style="fill:#fff;"/><g transform="matrix(130,0,0,130,378.415,745.493)"></g><text x="118.479px" y="745.493px" style="font-family:'Arial-BoldMT', 'Arial', sans-serif;font-weight:700;font-size:130px;fill:#0100ff;stroke:#0100ff;stroke-width:0.75px;">OFF</text></svg>